<mxfile host="app.diagrams.net" modified="2023-05-28T14:09:09.891Z" agent="Mozilla/5.0 (Windows NT 10.0; Win64; x64) AppleWebKit/537.36 (KHTML, like Gecko) Chrome/113.0.0.0 Safari/537.36 Edg/113.0.1774.57" etag="Y0HH_I6TRiD0bqX7XXpf" version="21.3.2" type="github">
  <diagram name="第 1 页" id="SH6x_qg_fAGoBkCHi8Yl">
    <mxGraphModel dx="911" dy="1680" grid="1" gridSize="10" guides="1" tooltips="1" connect="1" arrows="1" fold="1" page="1" pageScale="1" pageWidth="827" pageHeight="1169" math="0" shadow="0">
      <root>
        <mxCell id="0" />
        <mxCell id="1" parent="0" />
        <mxCell id="a3atGfo6N1oq-sw34cXM-53" value="" style="group" vertex="1" connectable="0" parent="1">
          <mxGeometry x="140" y="50" width="100" height="120" as="geometry" />
        </mxCell>
        <mxCell id="a3atGfo6N1oq-sw34cXM-40" value="" style="whiteSpace=wrap;html=1;aspect=fixed;labelBorderColor=default;fillColor=#0050ef;fontColor=#ffffff;strokeColor=#001DBC;container=0;" vertex="1" parent="a3atGfo6N1oq-sw34cXM-53">
          <mxGeometry x="20" width="80" height="80" as="geometry" />
        </mxCell>
        <mxCell id="a3atGfo6N1oq-sw34cXM-33" value="" style="shape=partialRectangle;whiteSpace=wrap;html=1;top=0;bottom=0;fillColor=none;container=0;" vertex="1" parent="a3atGfo6N1oq-sw34cXM-53">
          <mxGeometry x="80" width="10" height="80" as="geometry" />
        </mxCell>
        <mxCell id="a3atGfo6N1oq-sw34cXM-34" value="" style="shape=partialRectangle;whiteSpace=wrap;html=1;right=0;top=0;bottom=0;fillColor=none;routingCenterX=-0.5;rotation=90;container=0;" vertex="1" parent="a3atGfo6N1oq-sw34cXM-53">
          <mxGeometry x="50" y="10" width="20" height="80" as="geometry" />
        </mxCell>
        <mxCell id="a3atGfo6N1oq-sw34cXM-35" value="" style="shape=partialRectangle;whiteSpace=wrap;html=1;right=0;top=0;bottom=0;fillColor=none;routingCenterX=-0.5;rotation=90;container=0;" vertex="1" parent="a3atGfo6N1oq-sw34cXM-53">
          <mxGeometry x="50" y="-10" width="20" height="80" as="geometry" />
        </mxCell>
        <mxCell id="a3atGfo6N1oq-sw34cXM-36" value="" style="shape=partialRectangle;whiteSpace=wrap;html=1;right=0;top=0;bottom=0;fillColor=none;routingCenterX=-0.5;rotation=90;container=0;" vertex="1" parent="a3atGfo6N1oq-sw34cXM-53">
          <mxGeometry x="50" y="-20" width="20" height="80" as="geometry" />
        </mxCell>
        <mxCell id="a3atGfo6N1oq-sw34cXM-37" value="" style="shape=partialRectangle;whiteSpace=wrap;html=1;top=0;bottom=0;fillColor=none;container=0;" vertex="1" parent="a3atGfo6N1oq-sw34cXM-53">
          <mxGeometry x="90" width="10" height="80" as="geometry" />
        </mxCell>
        <mxCell id="a3atGfo6N1oq-sw34cXM-38" value="" style="shape=partialRectangle;whiteSpace=wrap;html=1;right=0;top=0;bottom=0;fillColor=none;routingCenterX=-0.5;rotation=90;container=0;" vertex="1" parent="a3atGfo6N1oq-sw34cXM-53">
          <mxGeometry x="50" width="20" height="80" as="geometry" />
        </mxCell>
        <mxCell id="a3atGfo6N1oq-sw34cXM-39" value="" style="shape=partialRectangle;whiteSpace=wrap;html=1;right=0;top=0;bottom=0;fillColor=none;routingCenterX=-0.5;rotation=90;container=0;" vertex="1" parent="a3atGfo6N1oq-sw34cXM-53">
          <mxGeometry x="50" y="-30" width="20" height="80" as="geometry" />
        </mxCell>
        <mxCell id="a3atGfo6N1oq-sw34cXM-41" value="" style="shape=partialRectangle;whiteSpace=wrap;html=1;top=0;bottom=0;fillColor=none;container=0;" vertex="1" parent="a3atGfo6N1oq-sw34cXM-53">
          <mxGeometry x="20" width="10" height="80" as="geometry" />
        </mxCell>
        <mxCell id="a3atGfo6N1oq-sw34cXM-42" value="" style="shape=partialRectangle;whiteSpace=wrap;html=1;right=0;top=0;bottom=0;fillColor=none;routingCenterX=-0.5;rotation=90;container=0;" vertex="1" parent="a3atGfo6N1oq-sw34cXM-53">
          <mxGeometry x="50" y="40" width="20" height="80" as="geometry" />
        </mxCell>
        <mxCell id="a3atGfo6N1oq-sw34cXM-43" value="" style="shape=partialRectangle;whiteSpace=wrap;html=1;top=0;bottom=0;fillColor=none;container=0;" vertex="1" parent="a3atGfo6N1oq-sw34cXM-53">
          <mxGeometry x="40" width="10" height="80" as="geometry" />
        </mxCell>
        <mxCell id="a3atGfo6N1oq-sw34cXM-44" value="" style="shape=partialRectangle;whiteSpace=wrap;html=1;top=0;bottom=0;fillColor=none;container=0;" vertex="1" parent="a3atGfo6N1oq-sw34cXM-53">
          <mxGeometry x="60" width="10" height="80" as="geometry" />
        </mxCell>
        <mxCell id="a3atGfo6N1oq-sw34cXM-45" value="" style="shape=partialRectangle;whiteSpace=wrap;html=1;right=0;top=0;bottom=0;fillColor=none;routingCenterX=-0.5;rotation=90;container=0;" vertex="1" parent="a3atGfo6N1oq-sw34cXM-53">
          <mxGeometry x="50" y="50" width="20" height="80" as="geometry" />
        </mxCell>
        <mxCell id="a3atGfo6N1oq-sw34cXM-46" value="" style="shape=partialRectangle;whiteSpace=wrap;html=1;right=0;top=0;bottom=0;fillColor=none;routingCenterX=-0.5;rotation=90;container=0;" vertex="1" parent="a3atGfo6N1oq-sw34cXM-53">
          <mxGeometry x="50" y="30" width="20" height="80" as="geometry" />
        </mxCell>
        <mxCell id="a3atGfo6N1oq-sw34cXM-47" value="" style="shape=partialRectangle;whiteSpace=wrap;html=1;right=0;top=0;bottom=0;fillColor=none;routingCenterX=-0.5;rotation=90;container=0;" vertex="1" parent="a3atGfo6N1oq-sw34cXM-53">
          <mxGeometry x="50" y="20" width="20" height="80" as="geometry" />
        </mxCell>
        <mxCell id="a3atGfo6N1oq-sw34cXM-18" value="" style="whiteSpace=wrap;html=1;aspect=fixed;labelBorderColor=default;fillColor=#60a917;fontColor=#ffffff;strokeColor=#2D7600;container=0;" vertex="1" parent="a3atGfo6N1oq-sw34cXM-53">
          <mxGeometry x="10" y="10" width="80" height="80" as="geometry" />
        </mxCell>
        <mxCell id="a3atGfo6N1oq-sw34cXM-23" value="" style="shape=partialRectangle;whiteSpace=wrap;html=1;top=0;bottom=0;fillColor=none;container=0;" vertex="1" parent="a3atGfo6N1oq-sw34cXM-53">
          <mxGeometry x="70" y="10" width="10" height="80" as="geometry" />
        </mxCell>
        <mxCell id="a3atGfo6N1oq-sw34cXM-28" value="" style="shape=partialRectangle;whiteSpace=wrap;html=1;right=0;top=0;bottom=0;fillColor=none;routingCenterX=-0.5;rotation=90;container=0;" vertex="1" parent="a3atGfo6N1oq-sw34cXM-53">
          <mxGeometry x="40" y="20" width="20" height="80" as="geometry" />
        </mxCell>
        <mxCell id="a3atGfo6N1oq-sw34cXM-30" value="" style="shape=partialRectangle;whiteSpace=wrap;html=1;right=0;top=0;bottom=0;fillColor=none;routingCenterX=-0.5;rotation=90;container=0;" vertex="1" parent="a3atGfo6N1oq-sw34cXM-53">
          <mxGeometry x="40" width="20" height="80" as="geometry" />
        </mxCell>
        <mxCell id="a3atGfo6N1oq-sw34cXM-31" value="" style="shape=partialRectangle;whiteSpace=wrap;html=1;right=0;top=0;bottom=0;fillColor=none;routingCenterX=-0.5;rotation=90;container=0;" vertex="1" parent="a3atGfo6N1oq-sw34cXM-53">
          <mxGeometry x="40" y="-10" width="20" height="80" as="geometry" />
        </mxCell>
        <mxCell id="a3atGfo6N1oq-sw34cXM-24" value="" style="shape=partialRectangle;whiteSpace=wrap;html=1;top=0;bottom=0;fillColor=none;container=0;" vertex="1" parent="a3atGfo6N1oq-sw34cXM-53">
          <mxGeometry x="80" y="10" width="10" height="80" as="geometry" />
        </mxCell>
        <mxCell id="a3atGfo6N1oq-sw34cXM-29" value="" style="shape=partialRectangle;whiteSpace=wrap;html=1;right=0;top=0;bottom=0;fillColor=none;routingCenterX=-0.5;rotation=90;container=0;" vertex="1" parent="a3atGfo6N1oq-sw34cXM-53">
          <mxGeometry x="40" y="10" width="20" height="80" as="geometry" />
        </mxCell>
        <mxCell id="a3atGfo6N1oq-sw34cXM-32" value="" style="shape=partialRectangle;whiteSpace=wrap;html=1;right=0;top=0;bottom=0;fillColor=none;routingCenterX=-0.5;rotation=90;container=0;" vertex="1" parent="a3atGfo6N1oq-sw34cXM-53">
          <mxGeometry x="40" y="-20" width="20" height="80" as="geometry" />
        </mxCell>
        <mxCell id="a3atGfo6N1oq-sw34cXM-19" value="" style="shape=partialRectangle;whiteSpace=wrap;html=1;top=0;bottom=0;fillColor=none;container=0;" vertex="1" parent="a3atGfo6N1oq-sw34cXM-53">
          <mxGeometry x="10" y="10" width="10" height="80" as="geometry" />
        </mxCell>
        <mxCell id="a3atGfo6N1oq-sw34cXM-20" value="" style="shape=partialRectangle;whiteSpace=wrap;html=1;right=0;top=0;bottom=0;fillColor=none;routingCenterX=-0.5;rotation=90;container=0;" vertex="1" parent="a3atGfo6N1oq-sw34cXM-53">
          <mxGeometry x="40" y="50" width="20" height="80" as="geometry" />
        </mxCell>
        <mxCell id="a3atGfo6N1oq-sw34cXM-21" value="" style="shape=partialRectangle;whiteSpace=wrap;html=1;top=0;bottom=0;fillColor=none;container=0;" vertex="1" parent="a3atGfo6N1oq-sw34cXM-53">
          <mxGeometry x="30" y="10" width="10" height="80" as="geometry" />
        </mxCell>
        <mxCell id="a3atGfo6N1oq-sw34cXM-22" value="" style="shape=partialRectangle;whiteSpace=wrap;html=1;top=0;bottom=0;fillColor=none;container=0;" vertex="1" parent="a3atGfo6N1oq-sw34cXM-53">
          <mxGeometry x="50" y="10" width="10" height="80" as="geometry" />
        </mxCell>
        <mxCell id="a3atGfo6N1oq-sw34cXM-25" value="" style="shape=partialRectangle;whiteSpace=wrap;html=1;right=0;top=0;bottom=0;fillColor=none;routingCenterX=-0.5;rotation=90;container=0;" vertex="1" parent="a3atGfo6N1oq-sw34cXM-53">
          <mxGeometry x="40" y="60" width="20" height="80" as="geometry" />
        </mxCell>
        <mxCell id="a3atGfo6N1oq-sw34cXM-26" value="" style="shape=partialRectangle;whiteSpace=wrap;html=1;right=0;top=0;bottom=0;fillColor=none;routingCenterX=-0.5;rotation=90;container=0;" vertex="1" parent="a3atGfo6N1oq-sw34cXM-53">
          <mxGeometry x="40" y="40" width="20" height="80" as="geometry" />
        </mxCell>
        <mxCell id="a3atGfo6N1oq-sw34cXM-27" value="" style="shape=partialRectangle;whiteSpace=wrap;html=1;right=0;top=0;bottom=0;fillColor=none;routingCenterX=-0.5;rotation=90;container=0;" vertex="1" parent="a3atGfo6N1oq-sw34cXM-53">
          <mxGeometry x="40" y="30" width="20" height="80" as="geometry" />
        </mxCell>
        <mxCell id="a3atGfo6N1oq-sw34cXM-1" value="" style="whiteSpace=wrap;html=1;aspect=fixed;labelBorderColor=default;fillColor=#e51400;fontColor=#ffffff;strokeColor=#B20000;container=0;" vertex="1" parent="a3atGfo6N1oq-sw34cXM-53">
          <mxGeometry y="20" width="80" height="80" as="geometry" />
        </mxCell>
        <mxCell id="a3atGfo6N1oq-sw34cXM-2" value="" style="shape=partialRectangle;whiteSpace=wrap;html=1;top=0;bottom=0;fillColor=none;container=0;" vertex="1" parent="a3atGfo6N1oq-sw34cXM-53">
          <mxGeometry y="20" width="10" height="80" as="geometry" />
        </mxCell>
        <mxCell id="a3atGfo6N1oq-sw34cXM-3" value="" style="shape=partialRectangle;whiteSpace=wrap;html=1;right=0;top=0;bottom=0;fillColor=none;routingCenterX=-0.5;rotation=90;container=0;" vertex="1" parent="a3atGfo6N1oq-sw34cXM-53">
          <mxGeometry x="30" y="60" width="20" height="80" as="geometry" />
        </mxCell>
        <mxCell id="a3atGfo6N1oq-sw34cXM-4" value="" style="shape=partialRectangle;whiteSpace=wrap;html=1;top=0;bottom=0;fillColor=none;container=0;" vertex="1" parent="a3atGfo6N1oq-sw34cXM-53">
          <mxGeometry x="20" y="20" width="10" height="80" as="geometry" />
        </mxCell>
        <mxCell id="a3atGfo6N1oq-sw34cXM-5" value="" style="shape=partialRectangle;whiteSpace=wrap;html=1;top=0;bottom=0;fillColor=none;container=0;" vertex="1" parent="a3atGfo6N1oq-sw34cXM-53">
          <mxGeometry x="40" y="20" width="10" height="80" as="geometry" />
        </mxCell>
        <mxCell id="a3atGfo6N1oq-sw34cXM-6" value="" style="shape=partialRectangle;whiteSpace=wrap;html=1;top=0;bottom=0;fillColor=none;container=0;" vertex="1" parent="a3atGfo6N1oq-sw34cXM-53">
          <mxGeometry x="60" y="20" width="10" height="80" as="geometry" />
        </mxCell>
        <mxCell id="a3atGfo6N1oq-sw34cXM-7" value="" style="shape=partialRectangle;whiteSpace=wrap;html=1;top=0;bottom=0;fillColor=none;container=0;" vertex="1" parent="a3atGfo6N1oq-sw34cXM-53">
          <mxGeometry x="70" y="20" width="10" height="80" as="geometry" />
        </mxCell>
        <mxCell id="a3atGfo6N1oq-sw34cXM-8" value="" style="shape=partialRectangle;whiteSpace=wrap;html=1;right=0;top=0;bottom=0;fillColor=none;routingCenterX=-0.5;rotation=90;container=0;" vertex="1" parent="a3atGfo6N1oq-sw34cXM-53">
          <mxGeometry x="30" y="70" width="20" height="80" as="geometry" />
        </mxCell>
        <mxCell id="a3atGfo6N1oq-sw34cXM-9" value="" style="shape=partialRectangle;whiteSpace=wrap;html=1;right=0;top=0;bottom=0;fillColor=none;routingCenterX=-0.5;rotation=90;container=0;" vertex="1" parent="a3atGfo6N1oq-sw34cXM-53">
          <mxGeometry x="30" y="50" width="20" height="80" as="geometry" />
        </mxCell>
        <mxCell id="a3atGfo6N1oq-sw34cXM-10" value="" style="shape=partialRectangle;whiteSpace=wrap;html=1;right=0;top=0;bottom=0;fillColor=none;routingCenterX=-0.5;rotation=90;container=0;" vertex="1" parent="a3atGfo6N1oq-sw34cXM-53">
          <mxGeometry x="30" y="40" width="20" height="80" as="geometry" />
        </mxCell>
        <mxCell id="a3atGfo6N1oq-sw34cXM-11" value="" style="shape=partialRectangle;whiteSpace=wrap;html=1;right=0;top=0;bottom=0;fillColor=none;routingCenterX=-0.5;rotation=90;container=0;" vertex="1" parent="a3atGfo6N1oq-sw34cXM-53">
          <mxGeometry x="30" y="30" width="20" height="80" as="geometry" />
        </mxCell>
        <mxCell id="a3atGfo6N1oq-sw34cXM-12" value="" style="shape=partialRectangle;whiteSpace=wrap;html=1;right=0;top=0;bottom=0;fillColor=none;routingCenterX=-0.5;rotation=90;container=0;" vertex="1" parent="a3atGfo6N1oq-sw34cXM-53">
          <mxGeometry x="30" y="20" width="20" height="80" as="geometry" />
        </mxCell>
        <mxCell id="a3atGfo6N1oq-sw34cXM-13" value="" style="shape=partialRectangle;whiteSpace=wrap;html=1;right=0;top=0;bottom=0;fillColor=none;routingCenterX=-0.5;rotation=90;container=0;" vertex="1" parent="a3atGfo6N1oq-sw34cXM-53">
          <mxGeometry x="30" y="10" width="20" height="80" as="geometry" />
        </mxCell>
        <mxCell id="a3atGfo6N1oq-sw34cXM-14" value="" style="shape=partialRectangle;whiteSpace=wrap;html=1;right=0;top=0;bottom=0;fillColor=none;routingCenterX=-0.5;rotation=90;container=0;" vertex="1" parent="a3atGfo6N1oq-sw34cXM-53">
          <mxGeometry x="30" width="20" height="80" as="geometry" />
        </mxCell>
        <mxCell id="a3atGfo6N1oq-sw34cXM-15" value="" style="shape=partialRectangle;whiteSpace=wrap;html=1;right=0;top=0;bottom=0;fillColor=none;routingCenterX=-0.5;rotation=90;container=0;" vertex="1" parent="a3atGfo6N1oq-sw34cXM-53">
          <mxGeometry x="30" y="-10" width="20" height="80" as="geometry" />
        </mxCell>
        <mxCell id="a3atGfo6N1oq-sw34cXM-54" value="[1,3,640,640]" style="rounded=0;whiteSpace=wrap;html=1;fillColor=none;strokeColor=none;" vertex="1" parent="1">
          <mxGeometry x="70" y="160" width="120" height="30" as="geometry" />
        </mxCell>
        <mxCell id="a3atGfo6N1oq-sw34cXM-55" value="[1,32,320,320]" style="rounded=0;whiteSpace=wrap;html=1;fillColor=none;strokeColor=none;" vertex="1" parent="1">
          <mxGeometry x="730" y="-10" width="120" height="30" as="geometry" />
        </mxCell>
        <mxCell id="a3atGfo6N1oq-sw34cXM-56" value="[1,32,320,320]" style="rounded=0;whiteSpace=wrap;html=1;fillColor=none;strokeColor=none;" vertex="1" parent="1">
          <mxGeometry x="90" y="250" width="80" height="20" as="geometry" />
        </mxCell>
        <mxCell id="a3atGfo6N1oq-sw34cXM-57" value="Conv&lt;br&gt;k=6 s=2 p=12" style="rounded=0;whiteSpace=wrap;html=1;fillColor=#f0a30a;fontColor=#000000;strokeColor=#000000;" vertex="1" parent="1">
          <mxGeometry x="135" y="200" width="110" height="40" as="geometry" />
        </mxCell>
        <mxCell id="a3atGfo6N1oq-sw34cXM-61" value="" style="endArrow=classic;html=1;rounded=0;exitX=0.969;exitY=0.374;exitDx=0;exitDy=0;exitPerimeter=0;entryX=0.5;entryY=0;entryDx=0;entryDy=0;" edge="1" parent="1" source="a3atGfo6N1oq-sw34cXM-9" target="a3atGfo6N1oq-sw34cXM-57">
          <mxGeometry width="50" height="50" relative="1" as="geometry">
            <mxPoint x="480" y="210" as="sourcePoint" />
            <mxPoint x="530" y="160" as="targetPoint" />
          </mxGeometry>
        </mxCell>
        <mxCell id="a3atGfo6N1oq-sw34cXM-62" value="" style="rounded=0;whiteSpace=wrap;html=1;fillColor=none;dashed=1;strokeColor=#FF3333;" vertex="1" parent="1">
          <mxGeometry x="30" y="20" width="260" height="170" as="geometry" />
        </mxCell>
        <mxCell id="a3atGfo6N1oq-sw34cXM-63" value="&lt;h2&gt;&lt;font color=&quot;#ff3333&quot;&gt;Input&lt;/font&gt;&lt;/h2&gt;" style="rounded=0;whiteSpace=wrap;html=1;fillColor=none;strokeColor=none;" vertex="1" parent="1">
          <mxGeometry x="30" y="70" width="100" height="40" as="geometry" />
        </mxCell>
      </root>
    </mxGraphModel>
  </diagram>
</mxfile>
